<svg width="36" height="37" viewBox="0 0 36 37" xmlns="http://www.w3.org/2000/svg">
<path d="M2.41182 21.2685L0.58131 19.4352C-0.19377 18.659 -0.19377 17.4038 0.58131 16.6358L16.6024 0.58219C17.3775 -0.194063 18.6308 -0.194063 19.3976 0.58219L35.4187 16.6275C36.1938 17.4038 36.1938 18.659 35.4187 19.427L33.5882 21.2602C32.8049 22.0448 31.5268 22.0282 30.76 21.2272L21.3023 11.2846V35.0181C21.3023 36.1164 20.4201 37 19.3234 37H16.6848C15.5882 37 14.7059 36.1164 14.7059 35.0181V11.2846L5.24004 21.2355C4.4732 22.0448 3.19514 22.0613 2.41182 21.2685Z"/>
</svg>
